<svg width="25" height="25" viewBox="0 0 25 25" fill="none" xmlns="http://www.w3.org/2000/svg">
<path d="M13.7854 0C15.1916 0.00374991 15.9053 0.0112497 16.5216 0.0287493L16.7641 0.0374991C17.044 0.0474988 17.3203 0.0599985 17.654 0.0749981C18.984 0.137497 19.8915 0.347492 20.6877 0.656234C21.5127 0.973727 22.2077 1.40372 22.9027 2.09745C23.5385 2.7221 24.0304 3.47801 24.3439 4.3124C24.6526 5.10863 24.8626 6.0161 24.9251 7.34732C24.9401 7.67981 24.9526 7.95606 24.9626 8.2373L24.9701 8.4798C24.9889 9.09478 24.9964 9.80851 24.9989 11.2147L25.0001 12.1472V13.7847C25.0031 14.6964 24.9936 15.6081 24.9714 16.5196L24.9639 16.7621C24.9539 17.0433 24.9414 17.3196 24.9264 17.6521C24.8639 18.9833 24.6514 19.8895 24.3439 20.687C24.0304 21.5214 23.5385 22.2773 22.9027 22.9019C22.278 23.5378 21.5221 24.0296 20.6877 24.3432C19.8915 24.6519 18.984 24.8619 17.654 24.9244L16.7641 24.9619L16.5216 24.9694C15.9053 24.9869 15.1916 24.9956 13.7854 24.9981L12.8529 24.9994H11.2167C10.3045 25.0026 9.39239 24.993 8.48051 24.9706L8.23801 24.9631C7.94128 24.9519 7.64462 24.939 7.34803 24.9244C6.01806 24.8619 5.11059 24.6519 4.31311 24.3432C3.47916 24.0295 2.7237 23.5376 2.09941 22.9019C1.46311 22.2774 0.970824 21.5215 0.656945 20.687C0.348203 19.8908 0.138208 18.9833 0.0757091 17.6521L0.03821 16.7621L0.0319603 16.5196C0.00891845 15.6081 -0.00149908 14.6964 0.000710979 13.7847V11.2147C-0.00274881 10.303 0.00641861 9.39127 0.0282104 8.4798L0.0369602 8.2373C0.0469599 7.95606 0.0594596 7.67981 0.0744592 7.34732C0.136958 6.0161 0.346953 5.10988 0.655695 4.3124C0.970305 3.47766 1.46345 2.72173 2.10066 2.09745C2.72459 1.4619 3.47961 0.970068 4.31311 0.656234C5.11059 0.347492 6.01682 0.137497 7.34803 0.0749981C7.68052 0.0599985 7.95802 0.0474988 8.23801 0.0374991L8.48051 0.0299992C9.39197 0.00779069 10.3037 -0.00179333 11.2154 0.00124988L13.7854 0ZM12.5004 6.24985C10.8428 6.24985 9.25317 6.90831 8.0811 8.08039C6.90902 9.25246 6.25056 10.8421 6.25056 12.4997C6.25056 14.1573 6.90902 15.7469 8.0811 16.919C9.25317 18.0911 10.8428 18.7495 12.5004 18.7495C14.158 18.7495 15.7476 18.0911 16.9197 16.919C18.0918 15.7469 18.7503 14.1573 18.7503 12.4997C18.7503 10.8421 18.0918 9.25246 16.9197 8.08039C15.7476 6.90831 14.158 6.24985 12.5004 6.24985ZM12.5004 8.74979C12.9929 8.74971 13.4805 8.84662 13.9355 9.03499C14.3905 9.22337 14.8039 9.49952 15.1522 9.84767C15.5004 10.1958 15.7767 10.6092 15.9653 11.0641C16.1538 11.519 16.2509 12.0066 16.2509 12.4991C16.251 12.9915 16.1541 13.4792 15.9657 13.9341C15.7774 14.3891 15.5012 14.8026 15.1531 15.1508C14.8049 15.4991 14.3916 15.7754 13.9366 15.9639C13.4817 16.1524 12.9941 16.2495 12.5017 16.2496C11.5071 16.2496 10.5533 15.8545 9.85007 15.1513C9.14683 14.448 8.75175 13.4942 8.75175 12.4997C8.75175 11.5052 9.14683 10.5514 9.85007 9.84811C10.5533 9.14487 11.5071 8.74979 12.5017 8.74979M19.064 4.37489C18.6496 4.37489 18.2522 4.53951 17.9592 4.83253C17.6662 5.12555 17.5015 5.52297 17.5015 5.93736C17.5015 6.35175 17.6662 6.74917 17.9592 7.04218C18.2522 7.3352 18.6496 7.49982 19.064 7.49982C19.4784 7.49982 19.8758 7.3352 20.1688 7.04218C20.4618 6.74917 20.6265 6.35175 20.6265 5.93736C20.6265 5.52297 20.4618 5.12555 20.1688 4.83253C19.8758 4.53951 19.4784 4.37489 19.064 4.37489Z" fill="#414141"/>
</svg>
