<svg width="22" height="25" viewBox="0 0 22 25" fill="none" xmlns="http://www.w3.org/2000/svg">
<path d="M21.8009 10.2775C19.5727 10.2775 17.507 9.56498 15.8215 8.35452V17.0893C15.8215 21.4519 12.2724 25 7.91075 25C6.22526 25 4.66165 24.4687 3.37722 23.5666C1.33756 22.1343 0 19.7654 0 17.0893C0 12.7266 3.54911 9.17747 7.91179 9.17747C8.2743 9.17747 8.62848 9.20767 8.97746 9.25455V10.2723V13.6422C8.63994 13.537 8.28368 13.4756 7.91179 13.4756C5.92004 13.4756 4.29914 15.0965 4.29914 17.0893C4.29914 18.4768 5.08667 19.6821 6.23672 20.2873C6.73778 20.5509 7.3076 20.7019 7.91283 20.7019C9.85875 20.7019 11.4463 19.1539 11.5192 17.2247L11.5224 0H15.8205C15.8205 0.372932 15.8569 0.736489 15.9215 1.09067C16.2246 2.72824 17.1965 4.13351 18.5435 5.01167C19.481 5.62315 20.5998 5.98046 21.7999 5.98046L21.8009 10.2775Z" fill="#414141"/>
</svg>
