<svg width="84" height="84" viewBox="0 0 84 84" fill="none" xmlns="http://www.w3.org/2000/svg">
<path d="M80.1929 34.7208H73.2487C63.6762 34.7208 55.8883 42.5087 55.8883 52.0812V62.4975C55.8883 70.1569 49.6594 76.3858 42 76.3858C34.3405 76.3858 28.1116 70.1569 28.1116 62.4975V51.7896C37.9515 50.1334 45.472 41.5539 45.472 31.2488V24.3046C47.3921 24.3046 48.9441 22.7526 48.9441 20.8325C48.9441 18.9124 47.3921 17.3604 45.472 17.3604H38.5279V3.47208C38.5279 1.55202 36.9759 0 35.0558 0C33.1357 0 31.5837 1.55202 31.5837 3.47208V17.3604H17.6954V3.47208C17.6954 1.55202 16.1434 0 14.2233 0C12.3032 0 10.7512 1.55202 10.7512 3.47208V17.3604H3.80704C1.88698 17.3604 0.334961 18.9124 0.334961 20.8325C0.334961 22.7526 1.88698 24.3046 3.80704 24.3046V31.2488C3.80704 41.5539 11.3276 50.1334 21.1675 51.7896V62.4975C21.1675 73.9866 30.5108 83.33 42 83.33C53.4891 83.33 62.8325 73.9866 62.8325 62.4975V52.0812C62.8325 46.3384 67.5059 41.665 73.2487 41.665H80.1929C82.1129 41.665 83.665 40.113 83.665 38.1929C83.665 36.2729 82.1129 34.7208 80.1929 34.7208Z" fill="#414141"/>
</svg>
