<svg width="84" height="84" viewBox="0 0 84 84" fill="none" xmlns="http://www.w3.org/2000/svg">
<path d="M48.9451 17.3626H4.11727C5.78052 7.52549 14.3363 0.00094567 24.6388 0.00094567C32.33 0.00094567 39.0455 4.20247 42.6532 10.4179H48.9451C50.8653 10.4179 52.4174 11.9701 52.4174 13.8903C52.4174 15.8105 50.8653 17.3626 48.9451 17.3626ZM24.6388 41.6689C34.9412 41.6689 43.497 34.1444 45.1603 24.3073H4.11727C5.77705 34.1444 14.3329 41.6689 24.6388 41.6689ZM82.158 11.6819L69.7791 18.2272V35.4153C69.7791 38.089 68.7513 40.6585 66.9075 42.5926L47.0249 63.4613C48.2576 66.3677 48.9451 69.5622 48.9451 72.913V76.3853C48.9451 80.2223 45.8374 83.33 42.0004 83.33H7.27709C3.44017 83.33 0.332428 80.2223 0.332428 76.3853V72.913C0.332428 59.489 11.2147 48.6067 24.6388 48.6067H42.9623C43.7748 48.6067 44.5595 48.3219 45.1811 47.8046L61.5844 34.1305C62.3761 33.4708 62.8344 32.4916 62.8344 31.4568V3.47328C62.8344 1.61905 64.2998 0.0217797 66.1505 0.00094567C68.2895 -0.0233607 70.4076 0.421098 72.3868 1.31002L82.1545 5.68168C84.1719 7.06714 84.1719 10.2964 82.1545 11.6853L82.158 11.6819Z" fill="#414141"/>
</svg>
