<svg width="80" height="84" viewBox="0 0 80 84" fill="none" xmlns="http://www.w3.org/2000/svg">
<path d="M78.7811 70.7939C76.9726 74.237 73.4357 76.3723 69.5475 76.3723H52.1689V79.8502C52.1689 81.7699 50.6143 83.328 48.6911 83.328C46.7678 83.328 45.2132 81.7699 45.2132 79.8502V76.3723H34.7798V79.8502C34.7798 81.7699 33.2217 83.328 31.302 83.328C29.3822 83.328 27.8242 81.7699 27.8242 79.8502V76.3723C23.9395 76.3689 20.406 74.23 18.601 70.7939C16.7926 67.3509 17.0395 63.2227 19.2479 60.0197C19.3174 59.9153 24.6628 53.7109 24.6628 53.7109C23.5499 52.8901 22.6144 51.819 21.9467 50.5461C20.3399 47.4856 20.559 43.8165 22.524 40.9717C22.6109 40.8465 29.0797 33.6996 29.0797 33.6996C27.4868 32.8962 26.1618 31.6094 25.3132 29.9679C23.8525 27.1474 24.0855 23.7843 25.9253 21.1829C25.9983 21.0786 42.1458 2.80268 42.1458 2.80268C45.4393 -0.932488 51.9567 -0.935966 55.2606 2.80268C55.2606 2.80268 71.4081 21.0751 71.4777 21.1794C73.314 23.7774 73.5505 27.1439 72.0898 29.9644C71.2412 31.6059 69.9127 32.8927 68.3198 33.6961C68.3198 33.6961 74.7886 40.843 74.879 40.9682C76.8405 43.8131 77.0596 47.4821 75.4528 50.5426C74.7851 51.8155 73.8461 52.8867 72.7367 53.7074C72.7367 53.7074 78.0786 59.9153 78.1516 60.0197C80.36 63.2227 80.6069 67.3509 78.7985 70.7939H78.7811ZM19.5192 33.8735C19.38 33.6404 19.2514 33.4005 19.1262 33.157C16.4656 28.0238 16.8899 21.8959 20.2356 17.1626C20.4234 16.8878 34.745 0.656872 34.745 0.656872C31.3889 -0.67513 27.1877 0.0308658 24.7463 2.80268C24.7463 2.80268 8.59883 21.0751 8.52579 21.1794C6.68951 23.7809 6.45302 27.1439 7.9137 29.9644C8.76229 31.6059 10.0908 32.8927 11.6802 33.6961C11.6802 33.6961 5.21492 40.843 5.12449 40.9682C3.16301 43.8131 2.9439 47.4856 4.54718 50.5426C5.21492 51.8155 6.15045 52.8901 7.26335 53.7074C7.26335 53.7074 1.91795 59.9153 1.84839 60.0162C-0.360018 63.2193 -0.606943 67.3439 1.20152 70.7905C3.00998 74.2335 6.5504 76.3689 10.4386 76.3689H13.9407C13.3878 75.6316 12.8731 74.8595 12.4349 74.0248C9.41959 68.2864 9.83345 61.4038 13.513 56.0689C13.6869 55.808 15.6414 53.5092 15.6414 53.5092C12.9774 48.2055 13.4086 41.9142 16.7856 37.0174C17.0743 36.6035 19.5192 33.8735 19.5192 33.8735Z" fill="#414141"/>
</svg>
