<svg width="84" height="84" viewBox="0 0 84 84" fill="none" xmlns="http://www.w3.org/2000/svg">
<path d="M82.2928 64.5002L70.0361 52.2435C70.2376 50.7635 70.1925 49.287 69.8624 47.8348C69.6401 46.8482 70.1125 45.7816 71.0436 45.1806C72.7737 44.0654 74.1773 42.5472 75.2195 40.6712C76.2096 38.882 76.7273 36.8288 76.7169 34.7652C76.7273 32.6668 76.2096 30.6136 75.2195 28.8244C74.1807 26.9519 72.7737 25.4337 71.0436 24.3185C70.1125 23.7174 69.6366 22.6544 69.8624 21.6608C70.3279 19.6006 70.2585 17.4953 69.6574 15.3934C68.511 11.4051 65.3252 8.21935 61.3334 7.06942C59.2281 6.47187 57.1228 6.40586 55.0696 6.86792C54.0725 7.07289 53.0164 6.61431 52.4153 5.68324C51.3001 3.95312 49.7854 2.54958 47.9094 1.50734C44.2824 -0.500708 39.7695 -0.504183 36.139 1.50734C34.27 2.5461 32.7552 3.94965 31.64 5.67977C31.039 6.61083 29.9864 7.08679 28.9823 6.86097C26.9326 6.40238 24.8238 6.46839 22.715 7.06942C18.7267 8.21241 15.5375 11.4017 14.3979 15.3865C13.7934 17.4918 13.724 19.6041 14.1895 21.6608C14.4118 22.6474 13.9394 23.714 13.0083 24.315C11.2747 25.4337 9.87116 26.9484 8.82892 28.8244C7.83879 30.6136 7.32115 32.6668 7.33157 34.7304C7.32115 36.8288 7.83879 38.882 8.83239 40.6747C9.87116 42.5472 11.2782 44.0619 13.0083 45.1771C13.9394 45.7816 14.4153 46.8447 14.1895 47.8348C13.8629 49.2697 13.8143 50.7323 14.0088 52.1983L1.7139 64.4968C0.268667 65.9385 -0.144754 68.0056 0.636925 69.8955C1.4186 71.775 3.16956 72.9458 5.2054 72.9458H10.632V78.3724C10.632 81.4783 13.1646 83.33 15.6174 83.33C16.9236 83.33 18.1187 82.8263 19.0811 81.8709L34.2491 66.7028C34.2491 66.7028 34.27 66.6646 34.2839 66.6472C34.871 67.1232 35.4546 67.6061 36.139 67.9883C37.9525 68.9923 39.9884 69.496 42.0207 69.496C44.0531 69.496 46.0924 68.9923 47.9094 67.9848C48.5834 67.613 49.1531 67.1371 49.7298 66.6716C49.7402 66.682 49.7403 66.6924 49.7507 66.7028L64.9257 81.8778C65.8811 82.8263 67.0762 83.33 68.3824 83.33C70.8317 83.33 73.3643 81.4783 73.3643 78.3724V72.9458H78.7909C80.8302 72.9458 82.5812 71.775 83.3629 69.8955C84.1445 68.0056 83.7346 65.9385 82.2928 64.5002ZM42.0624 17.3806C46.8602 17.3806 50.7477 21.2682 50.7477 26.066C50.7477 30.8637 46.8602 34.7513 42.0624 34.7513C37.2647 34.7513 33.3771 30.8637 33.3771 26.066C33.3771 21.2682 37.2647 17.3806 42.0624 17.3806ZM42.0624 38.2254C48.5452 38.2254 53.944 42.6827 55.4795 48.686C55.0348 48.686 54.6944 48.6825 54.5797 48.6825C49.702 48.6825 45.1475 50.8365 42.0242 54.5364C38.901 50.8365 34.3394 48.6825 29.4618 48.6825C29.3575 48.6825 29.0518 48.6825 28.6453 48.686C30.1809 42.6827 35.5797 38.2254 42.0624 38.2254Z" fill="#414141"/>
</svg>
