<svg width="26" height="25" viewBox="0 0 26 25" fill="none" xmlns="http://www.w3.org/2000/svg">
<path d="M1.27661 8.81262C1.38707 8.68444 8.83725 1.49897 8.83725 1.49897C9.81924 0.535517 11.1409 -0.00291309 12.5166 1.18549e-05C13.8923 0.0029368 15.2116 0.546982 16.1895 1.5146C16.1895 1.5146 23.624 8.68444 23.7334 8.8095L14.7159 17.8281C14.1201 18.396 13.3286 18.7128 12.5055 18.7128C11.6825 18.7128 10.891 18.396 10.2952 17.8281L1.27661 8.81262ZM16.1895 19.3058C15.2091 20.2766 13.8852 20.8211 12.5055 20.8211C11.1259 20.8211 9.80197 20.2766 8.82161 19.3058L0.238647 10.7228C0.0888412 11.1979 0.00846168 11.6921 0 12.1902L0 19.7894C0.00165475 21.1708 0.551163 22.4952 1.52799 23.472C2.50482 24.4488 3.8292 24.9983 5.21064 25H19.8004C21.1819 24.9983 22.5063 24.4488 23.4831 23.472C24.4599 22.4952 25.0094 21.1708 25.0111 19.7894V12.1902C25.0026 11.6921 24.9222 11.1979 24.7724 10.7228L16.1895 19.3058Z" fill="#414141"/>
</svg>
